<?xml version="1.0" standalone="no"?>
<!DOCTYPE svg PUBLIC "-//W3C//DTD SVG 20010904//EN"
 "http://www.w3.org/TR/2001/REC-SVG-20010904/DTD/svg10.dtd">
<svg version="1.0" xmlns="http://www.w3.org/2000/svg"
 width="256.000000pt" height="256.000000pt" viewBox="0 0 256.000000 256.000000"
 preserveAspectRatio="xMidYMid meet">
<metadata>
Created by potrace 1.14, written by Peter Selinger 2001-2017
</metadata>
<g transform="translate(0.000000,256.000000) scale(0.100000,-0.100000)"
fill="#000000" stroke="none">
<path d="M714 2180 c-50 -20 -42 -66 51 -305 26 -66 56 -139 66 -162 10 -24
19 -45 19 -48 0 -10 171 -438 191 -477 40 -78 80 -97 119 -55 26 27 39 55 105
230 28 76 58 146 66 155 8 10 88 43 177 75 176 62 228 88 237 118 18 57 -21
83 -300 199 -121 51 -233 98 -250 105 -87 39 -356 149 -395 161 -51 16 -57 16
-86 4z"/>
<path d="M1395 1423 c-14 -16 -43 -73 -64 -128 -21 -55 -50 -131 -65 -170 -15
-38 -32 -77 -39 -86 -7 -8 -75 -37 -152 -63 -180 -62 -244 -92 -257 -122 -25
-55 12 -83 237 -178 61 -26 119 -51 130 -56 59 -28 527 -219 570 -233 57 -19
78 -18 104 5 26 22 20 74 -23 186 -61 159 -87 226 -96 247 -5 11 -52 129 -105
262 -52 134 -104 261 -115 283 -43 84 -81 100 -125 53z"/>
</g>
</svg>
