<svg width="27" height="32" viewBox="0 0 27 32" fill="none" xmlns="http://www.w3.org/2000/svg">
<g id="icon">
<path id="&#60;Path&#62;" d="M22.5029 17.0102C22.5186 15.7925 22.842 14.5985 23.4432 13.5393C24.0443 12.4802 24.9036 11.5903 25.941 10.9525C25.282 10.0112 24.4125 9.23657 23.4017 8.69011C22.3909 8.14365 21.2665 7.84041 20.118 7.80447C17.6681 7.54731 15.2929 9.2705 14.0445 9.2705C12.7718 9.2705 10.8496 7.83001 8.77974 7.87259C7.44088 7.91585 6.13605 8.30518 4.99239 9.00266C3.84873 9.70013 2.90524 10.682 2.25385 11.8525C-0.567807 16.7378 1.5369 23.9175 4.23981 27.8663C5.59214 29.8 7.17262 31.9599 9.24065 31.8833C11.2643 31.7994 12.0201 30.5929 14.4629 30.5929C16.883 30.5929 17.5921 31.8833 19.7021 31.8346C21.8736 31.7994 23.2418 29.8924 24.5466 27.9404C25.5183 26.5626 26.266 25.0399 26.762 23.4285C25.5004 22.8949 24.4238 22.0018 23.6664 20.8604C22.909 19.7191 22.5044 18.38 22.5029 17.0102Z" fill="white"/>
<path id="&#60;Path&#62;_2" d="M18.5175 5.20741C19.7015 3.78607 20.2848 1.95917 20.1436 0.114681C18.3347 0.30467 16.6638 1.1692 15.4638 2.53601C14.8771 3.20374 14.4277 3.98055 14.1414 4.82204C13.8551 5.66354 13.7374 6.55321 13.7952 7.4402C14.6999 7.44952 15.595 7.25341 16.413 6.86666C17.231 6.4799 17.9506 5.91258 18.5175 5.20741Z" fill="white"/>
</g>
</svg>
