<svg width="99" height="32" viewBox="0 0 99 32" fill="none" xmlns="http://www.w3.org/2000/svg">
<g id="text">
<g id="App Store">
<path id="Vector" d="M10.8958 23.8311H4.75305L3.27787 28.0873H0.676025L6.49437 12.3403H9.19759L15.0159 28.0873H12.3697L10.8958 23.8311ZM5.38924 21.867H10.2584L7.85807 14.9595H7.7909L5.38924 21.867Z" fill="white"/>
<path id="Vector_2" d="M27.5816 22.3475C27.5816 25.9152 25.6274 28.2074 22.6783 28.2074C21.9312 28.2455 21.1883 28.0774 20.5345 27.7222C19.8807 27.3669 19.3425 26.839 18.9815 26.1987H18.9257V31.8853H16.5139V16.6064H18.8484V18.516H18.8927C19.2703 17.8788 19.8176 17.3536 20.4764 16.9962C21.1352 16.6388 21.8808 16.4626 22.6339 16.4863C25.6159 16.4863 27.5816 18.7897 27.5816 22.3475ZM25.1027 22.3475C25.1027 20.0231 23.8734 18.4949 21.9977 18.4949C20.155 18.4949 18.9155 20.0553 18.9155 22.3475C18.9155 24.6607 20.155 26.2099 21.9977 26.2099C23.8734 26.2099 25.1027 24.6929 25.1027 22.3475Z" fill="white"/>
<path id="Vector_3" d="M40.5135 22.3475C40.5135 25.9153 38.5593 28.2074 35.6102 28.2074C34.8631 28.2456 34.1201 28.0775 33.4663 27.7222C32.8125 27.367 32.2743 26.839 31.9133 26.1988H31.8575V31.8853H29.4458V16.6065H31.7802V18.5161H31.8246C32.2022 17.8789 32.7495 17.3537 33.4083 16.9963C34.067 16.6389 34.8126 16.4627 35.5658 16.4864C38.5478 16.4864 40.5135 18.7897 40.5135 22.3475ZM38.0346 22.3475C38.0346 20.0232 36.8052 18.495 34.9296 18.495C33.0869 18.495 31.8474 20.0553 31.8474 22.3475C31.8474 24.6608 33.0869 26.21 34.9296 26.21C36.8053 26.21 38.0346 24.693 38.0346 22.3475H38.0346Z" fill="white"/>
<path id="Vector_4" d="M49.0604 23.6998C49.2391 25.2614 50.7916 26.2867 52.9131 26.2867C54.9459 26.2867 56.4084 25.2613 56.4084 23.8533C56.4084 22.6311 55.5263 21.8992 53.4377 21.3977L51.3492 20.906C48.39 20.2076 47.0161 18.8553 47.0161 16.6609C47.0161 13.944 49.4393 12.0778 52.8801 12.0778C56.2854 12.0778 58.6199 13.944 58.6985 16.6609H56.2639C56.1181 15.0895 54.7887 14.1409 52.8459 14.1409C50.903 14.1409 49.5736 15.1006 49.5736 16.4975C49.5736 17.6108 50.4227 18.2659 52.4999 18.7674L54.2754 19.1933C57.5819 19.9574 58.9557 21.2552 58.9557 23.5585C58.9557 26.5046 56.5541 28.3497 52.7343 28.3497C49.1604 28.3497 46.7474 26.5479 46.5916 23.6997L49.0604 23.6998Z" fill="white"/>
<path id="Vector_5" d="M64.1607 13.8896V16.6065H66.395V18.4727H64.1607V24.8019C64.1607 25.7852 64.6081 26.2434 65.5902 26.2434C65.8555 26.2389 66.1203 26.2207 66.3836 26.1889V28.0439C65.942 28.1245 65.4932 28.1611 65.044 28.1529C62.6652 28.1529 61.7375 27.2799 61.7375 25.0533V18.4727H60.0292V16.6065H61.7375V13.8896H64.1607Z" fill="white"/>
<path id="Vector_6" d="M67.689 22.3475C67.689 18.7352 69.8662 16.4653 73.2614 16.4653C76.668 16.4653 78.8352 18.7352 78.8352 22.3475C78.8352 25.9697 76.6794 28.2297 73.2614 28.2297C69.8446 28.2297 67.689 25.9697 67.689 22.3475ZM76.3778 22.3475C76.3778 19.8696 75.2157 18.4071 73.2614 18.4071C71.3072 18.4071 70.1463 19.8807 70.1463 22.3475C70.1463 24.8354 71.3072 26.2867 73.2614 26.2867C75.2157 26.2867 76.3778 24.8354 76.3778 22.3475H76.3778Z" fill="white"/>
<path id="Vector_7" d="M80.8236 16.6065H83.1238V18.5606H83.1796C83.3353 17.9503 83.7012 17.4109 84.2158 17.0332C84.7305 16.6555 85.3626 16.4624 86.0058 16.4864C86.2837 16.4854 86.5609 16.5149 86.8321 16.5743V18.7786C86.4812 18.6738 86.1152 18.6257 85.7485 18.6362C85.3981 18.6223 85.0488 18.6826 84.7246 18.8131C84.4004 18.9436 84.1088 19.141 83.8701 19.392C83.6313 19.6429 83.451 19.9414 83.3414 20.2669C83.2319 20.5923 83.1957 20.9371 83.2353 21.2776V28.0873H80.8236L80.8236 16.6065Z" fill="white"/>
<path id="Vector_8" d="M97.9518 24.7152C97.6273 26.7994 95.5502 28.2297 92.8926 28.2297C89.4745 28.2297 87.353 25.992 87.353 22.402C87.353 18.8009 89.4859 16.4653 92.7912 16.4653C96.0419 16.4653 98.0861 18.6473 98.0861 22.1283V22.9357H89.7876V23.0781C89.7493 23.5007 89.8034 23.9263 89.9464 24.3268C90.0894 24.7273 90.3179 25.0935 90.6169 25.4011C90.9158 25.7087 91.2783 25.9506 91.6803 26.1107C92.0823 26.2709 92.5145 26.3457 92.9483 26.3301C93.5182 26.3822 94.0902 26.2533 94.5791 25.9623C95.0679 25.6714 95.4476 25.234 95.6617 24.7152L97.9518 24.7152ZM89.799 21.2887H95.6731C95.6947 20.9088 95.6358 20.5286 95.4999 20.172C95.3641 19.8154 95.1543 19.4901 94.8837 19.2165C94.6131 18.9429 94.2875 18.7269 93.9274 18.5821C93.5673 18.4372 93.1805 18.3667 92.7912 18.3749C92.3984 18.3726 92.0091 18.4463 91.6457 18.5918C91.2823 18.7373 90.9519 18.9517 90.6737 19.2226C90.3955 19.4935 90.175 19.8156 90.0249 20.1702C89.8747 20.5248 89.798 20.905 89.799 21.2887V21.2887Z" fill="white"/>
</g>
<g id="Download">
<path id="Vector_9" d="M5.08692 0.487533C5.59255 0.452078 6.09992 0.526717 6.57244 0.706065C7.04497 0.885413 7.47088 1.165 7.81943 1.52466C8.16799 1.88431 8.43051 2.31508 8.58806 2.78588C8.74561 3.25668 8.79427 3.75578 8.73051 4.24718C8.73051 6.66445 7.39348 8.05394 5.08692 8.05394H2.28992V0.487533H5.08692ZM3.49261 6.98389H4.95258C5.31388 7.00499 5.67545 6.9471 6.01097 6.81445C6.34649 6.68179 6.64752 6.47769 6.89213 6.21702C7.13675 5.95635 7.3188 5.64566 7.42504 5.30756C7.53128 4.96947 7.55902 4.61249 7.50626 4.2626C7.55519 3.91409 7.52463 3.55931 7.41677 3.2237C7.3089 2.88809 7.1264 2.57994 6.88234 2.32134C6.63828 2.06274 6.3387 1.86009 6.00507 1.72791C5.67145 1.59573 5.31203 1.5373 4.95258 1.55679H3.49261V6.98389Z" fill="white"/>
<path id="Vector_10" d="M10.0891 5.19633C10.0523 4.82108 10.0963 4.44247 10.2181 4.08479C10.3398 3.7271 10.5368 3.39824 10.7963 3.11928C11.0557 2.84033 11.372 2.61745 11.7248 2.46493C12.0776 2.31241 12.4591 2.23362 12.8449 2.23362C13.2307 2.23362 13.6122 2.31241 13.965 2.46493C14.3178 2.61745 14.6341 2.84033 14.8936 3.11928C15.153 3.39824 15.35 3.7271 15.4718 4.08479C15.5935 4.44247 15.6375 4.82108 15.6007 5.19633C15.6382 5.57196 15.5948 5.95109 15.4733 6.30936C15.3518 6.66762 15.155 6.99709 14.8955 7.27659C14.6359 7.55609 14.3194 7.77944 13.9663 7.93229C13.6131 8.08514 13.2311 8.1641 12.8449 8.1641C12.4587 8.1641 12.0767 8.08514 11.7235 7.93229C11.3704 7.77944 11.0539 7.55609 10.7943 7.27659C10.5348 6.99709 10.338 6.66762 10.2165 6.30936C10.0951 5.95109 10.0517 5.57196 10.0891 5.19633ZM14.4145 5.19633C14.4145 3.9586 13.8455 3.23478 12.8468 3.23478C11.8443 3.23478 11.2804 3.9586 11.2804 5.19634C11.2804 6.44399 11.8444 7.16223 12.8468 7.16223C13.8455 7.16222 14.4145 6.43902 14.4145 5.19633H14.4145Z" fill="white"/>
<path id="Vector_11" d="M22.9273 8.0538H21.7309L20.5232 3.84834H20.4319L19.2292 8.0538H18.0443L16.4335 2.34374H17.6032L18.65 6.70085H18.7362L19.9377 2.34374H21.0441L22.2455 6.70085H22.3367L23.3785 2.34374H24.5317L22.9273 8.0538Z" fill="white"/>
<path id="Vector_12" d="M25.8865 2.34372H26.9967V3.25081H27.0828C27.229 2.92502 27.4756 2.65191 27.7882 2.46955C28.1008 2.2872 28.4638 2.20468 28.8267 2.2335C29.111 2.21261 29.3965 2.2545 29.6621 2.35607C29.9276 2.45764 30.1663 2.61628 30.3606 2.82024C30.5548 3.0242 30.6996 3.26826 30.7842 3.53433C30.8688 3.80039 30.8911 4.08166 30.8494 4.35727V8.05371H29.6961V4.64026C29.6961 3.72264 29.288 3.2663 28.4351 3.2663C28.242 3.25751 28.0493 3.28962 27.8702 3.36041C27.691 3.43121 27.5296 3.53902 27.3971 3.67647C27.2646 3.81391 27.164 3.97772 27.1023 4.15669C27.0406 4.33565 27.0193 4.52553 27.0397 4.71331V8.05378H25.8865L25.8865 2.34372Z" fill="white"/>
<path id="Vector_13" d="M32.687 0.114681H33.8403V8.05377H32.687V0.114681Z" fill="white"/>
<path id="Vector_14" d="M35.4434 5.19634C35.4067 4.82107 35.4507 4.44244 35.5725 4.08475C35.6943 3.72705 35.8913 3.39817 36.1508 3.11921C36.4103 2.84025 36.7266 2.61736 37.0794 2.46484C37.4322 2.31232 37.8138 2.23353 38.1996 2.23353C38.5854 2.23353 38.9669 2.31232 39.3197 2.46484C39.6726 2.61736 39.9889 2.84025 40.2484 3.11921C40.5079 3.39817 40.7048 3.72705 40.8266 4.08475C40.9485 4.44244 40.9924 4.82107 40.9557 5.19634C40.9931 5.57199 40.9496 5.95113 40.8281 6.30939C40.7066 6.66765 40.5098 6.99711 40.2502 7.27661C39.9907 7.5561 39.6741 7.77944 39.321 7.93228C38.9678 8.08512 38.5858 8.16408 38.1996 8.16408C37.8133 8.16408 37.4313 8.08512 37.0782 7.93228C36.725 7.77944 36.4085 7.5561 36.1489 7.27661C35.8893 6.99711 35.6925 6.66765 35.571 6.30939C35.4495 5.95113 35.406 5.57199 35.4434 5.19634ZM39.7688 5.19634C39.7688 3.95861 39.1998 3.2348 38.2011 3.2348C37.1987 3.2348 36.6348 3.95861 36.6348 5.19636C36.6348 6.444 37.1987 7.16224 38.2011 7.16224C39.1998 7.16223 39.7688 6.43903 39.7688 5.19634H39.7688Z" fill="white"/>
<path id="Vector_15" d="M42.1698 6.43898C42.1698 5.41114 42.953 4.81859 44.3433 4.73438L45.9262 4.64522V4.15236C45.9262 3.54928 45.5181 3.20873 44.7298 3.20873C44.086 3.20873 43.6399 3.43969 43.5119 3.84339H42.3954C42.5132 2.86261 43.4574 2.23353 44.783 2.23353C46.2481 2.23353 47.0744 2.94619 47.0744 4.15236V8.0538H45.9642V7.25135H45.873C45.6877 7.53919 45.4277 7.77385 45.1193 7.93136C44.8109 8.08887 44.4653 8.16358 44.1177 8.14788C43.8724 8.17281 43.6244 8.14724 43.3898 8.0728C43.1553 7.99837 42.9392 7.87673 42.7557 7.71572C42.5722 7.55471 42.4252 7.35792 42.3243 7.13801C42.2234 6.91811 42.1708 6.67998 42.1698 6.43898ZM45.9262 5.95106V5.47368L44.4992 5.56284C43.6944 5.61547 43.3294 5.88295 43.3294 6.38634C43.3294 6.90026 43.7856 7.19932 44.413 7.19932C44.5968 7.2175 44.7825 7.19937 44.959 7.14599C45.1355 7.09262 45.2992 7.0051 45.4404 6.88863C45.5816 6.77217 45.6974 6.62915 45.7808 6.46808C45.8643 6.30701 45.9137 6.13118 45.9262 5.95106Z" fill="white"/>
<path id="Vector_16" d="M48.5902 5.19629C48.5902 3.39201 49.5395 2.24901 51.0159 2.24901C51.3811 2.23256 51.7436 2.31803 52.0609 2.49543C52.3782 2.67283 52.6373 2.93482 52.8079 3.25079H52.8941V0.114681H54.0474V8.05377H52.9423V7.15163H52.851C52.6672 7.46547 52.3991 7.7242 52.0756 7.8998C51.7522 8.07541 51.3857 8.1612 51.0159 8.14788C49.5293 8.14794 48.5902 7.00491 48.5902 5.19629ZM49.7815 5.19629C49.7815 6.40741 50.3658 7.13618 51.3429 7.13618C52.3149 7.13618 52.9157 6.39689 52.9157 5.20125C52.9157 4.01119 52.3086 3.26136 51.3429 3.26136C50.3721 3.26136 49.7815 3.99508 49.7815 5.19629H49.7815Z" fill="white"/>
<path id="Vector_17" d="M58.8188 5.19633C58.7821 4.82108 58.826 4.44247 58.9478 4.08479C59.0696 3.7271 59.2665 3.39824 59.526 3.11928C59.7855 2.84033 60.1017 2.61745 60.4545 2.46493C60.8073 2.31241 61.1889 2.23362 61.5746 2.23362C61.9604 2.23362 62.3419 2.31241 62.6947 2.46493C63.0475 2.61745 63.3638 2.84033 63.6233 3.11928C63.8828 3.39824 64.0797 3.7271 64.2015 4.08479C64.3233 4.44247 64.3672 4.82108 64.3305 5.19633C64.3679 5.57196 64.3245 5.95109 64.203 6.30936C64.0816 6.66762 63.8847 6.99709 63.6252 7.27659C63.3657 7.55609 63.0491 7.77944 62.696 7.93229C62.3429 8.08514 61.9609 8.1641 61.5746 8.1641C61.1884 8.1641 60.8064 8.08514 60.4533 7.93229C60.1001 7.77944 59.7836 7.55609 59.5241 7.27659C59.2645 6.99709 59.0677 6.66762 58.9462 6.30936C58.8248 5.95109 58.7814 5.57196 58.8188 5.19633ZM63.1442 5.19633C63.1442 3.9586 62.5752 3.23478 61.5765 3.23478C60.5741 3.23478 60.0102 3.9586 60.0102 5.19634C60.0102 6.44399 60.5741 7.16223 61.5765 7.16223C62.5752 7.16222 63.1442 6.43902 63.1442 5.19633Z" fill="white"/>
<path id="Vector_18" d="M65.8779 2.34372H66.9881V3.25081H67.0743C67.2205 2.92502 67.4671 2.65191 67.7797 2.46955C68.0923 2.2872 68.4553 2.20468 68.8182 2.2335C69.1025 2.21261 69.388 2.2545 69.6535 2.35607C69.919 2.45764 70.1578 2.61628 70.352 2.82024C70.5463 3.0242 70.6911 3.26826 70.7757 3.53433C70.8603 3.80039 70.8826 4.08166 70.8408 4.35727V8.05371H69.6876V4.64026C69.6876 3.72264 69.2795 3.2663 68.4266 3.2663C68.2335 3.25751 68.0408 3.28962 67.8616 3.36041C67.6825 3.43121 67.5211 3.53902 67.3885 3.67647C67.256 3.81391 67.1555 3.97772 67.0938 4.15669C67.0321 4.33565 67.0108 4.52553 67.0312 4.71331V8.05378H65.8779V2.34372Z" fill="white"/>
<path id="Vector_19" d="M77.3574 0.922108V2.36974H78.6235V3.31895H77.3574V6.25509C77.3574 6.85322 77.6096 7.11512 78.1837 7.11512C78.3307 7.11466 78.4775 7.10598 78.6235 7.08912V8.02778C78.4163 8.06399 78.2065 8.08325 77.9961 8.08537C76.7136 8.08537 76.2028 7.64451 76.2028 6.54362V3.3189H75.2751V2.36969H76.2028V0.922108H77.3574Z" fill="white"/>
<path id="Vector_20" d="M80.1989 0.114681H81.342V3.26135H81.4332C81.5865 2.93251 81.8399 2.65786 82.1587 2.47481C82.4776 2.29177 82.8464 2.20924 83.215 2.23847C83.4979 2.22343 83.7807 2.26957 84.0432 2.37361C84.3057 2.47764 84.5415 2.63701 84.7337 2.84033C84.9259 3.04365 85.0698 3.28592 85.1552 3.54985C85.2406 3.81378 85.2653 4.09286 85.2276 4.3672V8.05379H84.0731V4.6452C84.0731 3.73315 83.6384 3.27124 82.8236 3.27124C82.6253 3.25536 82.426 3.28198 82.2394 3.34926C82.0528 3.41653 81.8835 3.52283 81.7433 3.66072C81.6032 3.79861 81.4956 3.96475 81.428 4.14753C81.3604 4.33031 81.3346 4.5253 81.3522 4.71888V8.05376H80.1989L80.1989 0.114681Z" fill="white"/>
<path id="Vector_21" d="M91.952 6.51205C91.7954 7.03391 91.4559 7.48533 90.993 7.78732C90.5301 8.08931 89.9732 8.22265 89.4199 8.16401C89.0349 8.17394 88.6523 8.10189 88.2987 7.95285C87.945 7.80382 87.6288 7.58137 87.372 7.30095C87.1151 7.02053 86.9238 6.68886 86.8113 6.32895C86.6988 5.96904 86.6678 5.58952 86.7205 5.21674C86.6692 4.8428 86.7008 4.46246 86.813 4.10148C86.9252 3.74049 87.1155 3.40728 87.371 3.12441C87.6265 2.84153 87.9412 2.6156 88.2938 2.4619C88.6464 2.3082 89.0287 2.23032 89.4148 2.23354C91.0408 2.23354 92.0217 3.31901 92.0217 5.11207V5.50529H87.8953V5.56844C87.8772 5.77798 87.9042 5.9889 87.9744 6.18767C88.0447 6.38644 88.1566 6.56868 88.3032 6.72269C88.4497 6.87671 88.6275 6.9991 88.8253 7.08203C89.0231 7.16496 89.2364 7.20659 89.4516 7.20425C89.7274 7.23662 90.0069 7.18808 90.2545 7.06481C90.5021 6.94155 90.7065 6.74912 90.8418 6.51201L91.952 6.51205ZM87.8953 4.67186H90.8469C90.8614 4.48021 90.8348 4.28772 90.7686 4.10674C90.7025 3.92577 90.5984 3.76031 90.4629 3.621C90.3274 3.48169 90.1636 3.37162 89.982 3.29785C89.8005 3.22408 89.6051 3.18824 89.4085 3.19264C89.209 3.1902 89.011 3.22679 88.8263 3.30027C88.6415 3.37375 88.4737 3.48262 88.3327 3.62048C88.1916 3.75834 88.0803 3.92238 88.0052 4.10295C87.9301 4.28352 87.8927 4.47696 87.8953 4.67186H87.8953Z" fill="white"/>
</g>
</g>
</svg>
