<svg width="24" height="24" viewBox="0 0 24 24" fill="none" xmlns="http://www.w3.org/2000/svg">
<g id="Cross">
<path id="Vector (Stroke)" fill-rule="evenodd" clip-rule="evenodd" d="M5.3909 5.3909C5.91209 4.8697 6.75712 4.8697 7.27831 5.3909L12 10.1126L16.7217 5.3909C17.2429 4.8697 18.0879 4.8697 18.6091 5.3909C19.1303 5.91209 19.1303 6.75712 18.6091 7.27831L13.8874 12L18.6091 16.7217C19.1303 17.2429 19.1303 18.0879 18.6091 18.6091C18.0879 19.1303 17.2429 19.1303 16.7217 18.6091L12 13.8874L7.27831 18.6091C6.75712 19.1303 5.91209 19.1303 5.3909 18.6091C4.8697 18.0879 4.8697 17.2429 5.3909 16.7217L10.1126 12L5.3909 7.27831C4.8697 6.75712 4.8697 5.91209 5.3909 5.3909Z" fill="black"/>
</g>
</svg>
