<svg width="29" height="32" viewBox="0 0 29 32" fill="none" xmlns="http://www.w3.org/2000/svg">
<g id="icon">
<path id="path94" d="M13.7037 15.2822L0.457153 29.3412C0.458397 29.3437 0.458397 29.3475 0.459641 29.3499C0.866482 30.8765 2.25994 32 3.91467 32C4.57657 32 5.1974 31.8208 5.7299 31.5073L5.7722 31.4824L20.6822 22.8791L13.7037 15.2822Z" fill="#EA4335"/>
<path id="path98" d="M27.1044 12.8882L27.0919 12.8795L20.6547 9.1483L13.4025 15.6018L20.6808 22.8776L27.0832 19.1837C28.2055 18.5765 28.9681 17.3933 28.9681 16.0297C28.9681 14.6736 28.2167 13.4966 27.1044 12.8882Z" fill="#FBBC04"/>
<path id="path102" d="M0.456889 2.65774C0.377262 2.95136 0.334961 3.25991 0.334961 3.57842V28.4218C0.334961 28.7403 0.377262 29.0488 0.458133 29.3412L14.1588 15.6418L0.456889 2.65774Z" fill="#4285F4"/>
<path id="path106" d="M13.8015 15.9999L20.6568 9.14581L5.76425 0.511346C5.22304 0.18662 4.59101 -2.86102e-06 3.91543 -2.86102e-06C2.2607 -2.86102e-06 0.864749 1.12596 0.457909 2.65379C0.457909 2.65503 0.456665 2.65628 0.456665 2.65752L13.8015 15.9999Z" fill="#34A853"/>
</g>
</svg>
