<svg width="101" height="32" viewBox="0 0 101 32" fill="none" xmlns="http://www.w3.org/2000/svg">
<g id="text">
<g id="Get it on">
<path id="path42" d="M8.46689 3.97254C8.46689 4.95803 8.17524 5.74242 7.59076 6.32807C6.92632 7.02426 6.06196 7.37236 4.99885 7.37236C3.97926 7.37236 3.11372 7.01956 2.40224 6.31278C1.6884 5.60718 1.33325 4.73106 1.33325 3.68677C1.33325 2.6413 1.6884 1.76635 2.40224 1.05958C3.11372 0.353974 3.97926 -2.38419e-06 4.99885 -2.38419e-06C5.50336 -2.38419e-06 5.98787 0.0987816 6.44651 0.29635C6.90633 0.493918 7.27442 0.756167 7.55078 1.08427L6.92985 1.7052C6.46298 1.14778 5.8197 0.867887 4.99885 0.867887C4.25562 0.867887 3.61352 1.12896 3.07138 1.65111C2.52925 2.17443 2.25877 2.8518 2.25877 3.68677C2.25877 4.52055 2.52925 5.19911 3.07138 5.72125C3.61352 6.24457 4.25562 6.50447 4.99885 6.50447C5.78678 6.50447 6.44298 6.24222 6.96983 5.71655C7.31087 5.37433 7.50727 4.89923 7.56019 4.2877H4.99885V3.43981H8.41749C8.45042 3.62444 8.46689 3.80202 8.46689 3.97254Z" fill="white"/>
<path id="path46" d="M8.46689 3.97254C8.46689 4.95803 8.17524 5.74242 7.59076 6.32807C6.92632 7.02426 6.06196 7.37236 4.99885 7.37236C3.97926 7.37236 3.11372 7.01956 2.40224 6.31278C1.6884 5.60718 1.33325 4.73106 1.33325 3.68677C1.33325 2.6413 1.6884 1.76635 2.40224 1.05958C3.11372 0.353974 3.97926 -2.38419e-06 4.99885 -2.38419e-06C5.50336 -2.38419e-06 5.98787 0.0987816 6.44651 0.29635C6.90633 0.493918 7.27442 0.756167 7.55078 1.08427L6.92985 1.7052C6.46298 1.14778 5.8197 0.867887 4.99885 0.867887C4.25562 0.867887 3.61352 1.12896 3.07138 1.65111C2.52925 2.17443 2.25877 2.8518 2.25877 3.68677C2.25877 4.52055 2.52925 5.19911 3.07138 5.72125C3.61352 6.24457 4.25562 6.50447 4.99885 6.50447C5.78678 6.50447 6.44298 6.24222 6.96983 5.71655C7.31087 5.37433 7.50727 4.89923 7.56019 4.2877H4.99885V3.43981H8.41749C8.45042 3.62444 8.46689 3.80202 8.46689 3.97254Z" fill="white"/>
<path id="path50" d="M13.8875 1.02559H10.6746V3.26234H13.5723V4.11024H10.6746V6.347H13.8875V7.21489H9.76794V0.158871H13.8875V1.02559Z" fill="white"/>
<path id="path54" d="M13.8875 1.02559H10.6746V3.26234H13.5723V4.11024H10.6746V6.347H13.8875V7.21489H9.76794V0.158871H13.8875V1.02559Z" fill="white"/>
<path id="path58" d="M17.7107 7.21457H16.804V1.02526H14.833V0.15855H19.6817V1.02526H17.7107V7.21457Z" fill="white"/>
<path id="path62" d="M17.7107 7.21457H16.804V1.02526H14.833V0.15855H19.6817V1.02526H17.7107V7.21457Z" fill="white"/>
<path id="path64" d="M23.1899 0.15855H24.0966V7.21457H23.1899V0.15855Z" fill="white"/>
<path id="path68" d="M28.1178 7.21457H27.2111V1.02526H25.2401V0.15855H30.0888V1.02526H28.1178V7.21457Z" fill="white"/>
<path id="path72" d="M28.1178 7.21457H27.2111V1.02526H25.2401V0.15855H30.0888V1.02526H28.1178V7.21457Z" fill="white"/>
<path id="path76" d="M34.7633 5.71184C35.2854 6.24105 35.924 6.50447 36.6802 6.50447C37.4364 6.50447 38.0749 6.24105 38.5971 5.71184C39.1192 5.18264 39.3815 4.50762 39.3815 3.68677C39.3815 2.86592 39.1192 2.18972 38.5971 1.66169C38.0749 1.13249 37.4364 0.867887 36.6802 0.867887C35.924 0.867887 35.2854 1.13249 34.7633 1.66169C34.2423 2.18972 33.9801 2.86592 33.9801 3.68677C33.9801 4.50762 34.2423 5.18264 34.7633 5.71184ZM39.2674 6.3022C38.5735 7.01603 37.7115 7.37236 36.6802 7.37236C35.6488 7.37236 34.7868 7.01603 34.0942 6.3022C33.4003 5.58954 33.0546 4.71812 33.0546 3.68677C33.0546 2.65541 33.4003 1.78282 34.0942 1.07016C34.7868 0.357502 35.6488 -2.38419e-06 36.6802 -2.38419e-06C37.7057 -2.38419e-06 38.5653 0.358678 39.2627 1.07486C39.9589 1.79105 40.307 2.66129 40.307 3.68677C40.307 4.71812 39.9601 5.58954 39.2674 6.3022Z" fill="white"/>
<path id="path80" d="M34.7633 5.71184C35.2854 6.24105 35.924 6.50447 36.6802 6.50447C37.4364 6.50447 38.0749 6.24105 38.5971 5.71184C39.1192 5.18264 39.3815 4.50762 39.3815 3.68677C39.3815 2.86592 39.1192 2.18972 38.5971 1.66169C38.0749 1.13249 37.4364 0.867887 36.6802 0.867887C35.924 0.867887 35.2854 1.13249 34.7633 1.66169C34.2423 2.18972 33.9801 2.86592 33.9801 3.68677C33.9801 4.50762 34.2423 5.18264 34.7633 5.71184ZM39.2674 6.3022C38.5735 7.01603 37.7115 7.37236 36.6802 7.37236C35.6488 7.37236 34.7868 7.01603 34.0942 6.3022C33.4003 5.58954 33.0546 4.71812 33.0546 3.68677C33.0546 2.65541 33.4003 1.78282 34.0942 1.07016C34.7868 0.357502 35.6488 -2.38419e-06 36.6802 -2.38419e-06C37.7057 -2.38419e-06 38.5653 0.358678 39.2627 1.07486C39.9589 1.79105 40.307 2.66129 40.307 3.68677C40.307 4.71812 39.9601 5.58954 39.2674 6.3022Z" fill="white"/>
<path id="path84" d="M41.5793 7.21457V0.15855H42.6824L46.1117 5.64696H46.1516L46.1117 4.2875V0.15855H47.0195V7.21457H46.0729L42.4849 1.45921H42.4461L42.4849 2.81985V7.21457H41.5793Z" fill="white"/>
<path id="path88" d="M41.5793 7.21457V0.15855H42.6824L46.1117 5.64696H46.1516L46.1117 4.2875V0.15855H47.0195V7.21457H46.0729L42.4849 1.45921H42.4461L42.4849 2.81985V7.21457H41.5793Z" fill="white"/>
</g>
<path id="Google Play" d="M78.4597 27.2066H80.6541V12.5054H78.4597V27.2066ZM98.2248 17.8009L95.7093 24.1749H95.634L93.0233 17.8009H90.6595L94.5745 26.7092L92.3436 31.6648H94.6309L100.665 17.8009H98.2248ZM85.7803 25.5367C85.0606 25.5367 84.0586 25.178 84.0586 24.2878C84.0586 23.1541 85.3064 22.719 86.3848 22.719C87.3491 22.719 87.8042 22.9271 88.3898 23.2106C88.2193 24.5724 87.0469 25.5367 85.7803 25.5367ZM86.0449 17.4799C84.4561 17.4799 82.8097 18.1796 82.13 19.7308L84.0774 20.5434C84.4938 19.7308 85.2687 19.465 86.0825 19.465C87.2174 19.465 88.371 20.1459 88.3898 21.3572V21.5077C87.9924 21.2807 87.1421 20.9409 86.1013 20.9409C84.0022 20.9409 81.8642 22.0945 81.8642 24.2501C81.8642 26.2176 83.5859 27.4853 85.5145 27.4853C86.9904 27.4853 87.8042 26.8232 88.3146 26.0471H88.3898V27.1819H90.5078V21.5453C90.5078 18.9358 88.5604 17.4799 86.0449 17.4799ZM72.4832 19.5908H69.3621V14.5517H72.4832C74.1238 14.5517 75.0552 15.9099 75.0552 17.0707C75.0552 18.2102 74.1238 19.5908 72.4832 19.5908ZM72.4268 12.5054H67.1689V27.2066H69.3621V21.6371H72.4268C74.8588 21.6371 77.2496 19.8754 77.2496 17.0707C77.2496 14.2659 74.8588 12.5054 72.4268 12.5054ZM43.7547 25.539C42.2388 25.539 40.9699 24.2701 40.9699 22.5273C40.9699 20.7657 42.2388 19.4768 43.7547 19.4768C45.2517 19.4768 46.4254 20.7657 46.4254 22.5273C46.4254 24.2701 45.2517 25.539 43.7547 25.539ZM46.2748 18.6241H46.1984C45.7056 18.0373 44.759 17.5069 43.5653 17.5069C41.064 17.5069 38.7719 19.7037 38.7719 22.5273C38.7719 25.3309 41.064 27.51 43.5653 27.51C44.759 27.51 45.7056 26.9797 46.1984 26.3728H46.2748V27.0937C46.2748 29.0071 45.2517 30.0302 43.6029 30.0302C42.2576 30.0302 41.4238 29.0635 41.0828 28.2486L39.1694 29.0447C39.7186 30.3712 41.178 32 43.6029 32C46.1796 32 48.3587 30.4841 48.3587 26.7903V17.8092H46.2748V18.6241ZM49.8746 27.2066H52.0725V12.5042H49.8746V27.2066ZM55.3112 22.3568C55.2548 20.4246 56.8083 19.4391 57.9255 19.4391C58.7981 19.4391 59.5366 19.8742 59.7824 20.4999L55.3112 22.3568ZM62.1321 20.6892C61.7158 19.572 60.4457 17.5069 57.8502 17.5069C55.2736 17.5069 53.1333 19.5332 53.1333 22.5085C53.1333 25.3121 55.2548 27.51 58.096 27.51C60.3892 27.51 61.7158 26.1082 62.2649 25.2933L60.5597 24.1561C59.9917 24.9899 59.2144 25.539 58.096 25.539C56.9788 25.539 56.1827 25.0275 55.6711 24.0244L62.359 21.2572L62.1321 20.6892ZM8.84971 19.0416V21.1631H13.9265C13.7748 22.3568 13.3773 23.2282 12.7717 23.8338C12.032 24.5735 10.876 25.3885 8.84971 25.3885C5.72272 25.3885 3.27899 22.8683 3.27899 19.7425C3.27899 16.6155 5.72272 14.0965 8.84971 14.0965C10.5361 14.0965 11.7674 14.7598 12.6764 15.6124L14.1735 14.1154C12.9034 12.9029 11.2182 11.9739 8.84971 11.9739C4.56788 11.9739 0.96814 15.4607 0.96814 19.7425C0.96814 24.0244 4.56788 27.51 8.84971 27.51C11.1606 27.51 12.9034 26.7515 14.2676 25.3309C15.6705 23.9291 16.1057 21.9593 16.1057 20.367C16.1057 19.8742 16.068 19.4203 15.9916 19.0416H8.84971ZM21.8786 25.539C20.3628 25.539 19.0551 24.289 19.0551 22.5085C19.0551 20.708 20.3628 19.4768 21.8786 19.4768C23.3933 19.4768 24.7011 20.708 24.7011 22.5085C24.7011 24.289 23.3933 25.539 21.8786 25.539ZM21.8786 17.5069C19.1115 17.5069 16.8571 19.6096 16.8571 22.5085C16.8571 25.3885 19.1115 27.51 21.8786 27.51C24.6446 27.51 26.899 25.3885 26.899 22.5085C26.899 19.6096 24.6446 17.5069 21.8786 17.5069ZM32.8308 25.539C31.3149 25.539 30.0072 24.289 30.0072 22.5085C30.0072 20.708 31.3149 19.4768 32.8308 19.4768C34.3466 19.4768 35.6532 20.708 35.6532 22.5085C35.6532 24.289 34.3466 25.539 32.8308 25.539ZM32.8308 17.5069C30.0648 17.5069 27.8104 19.6096 27.8104 22.5085C27.8104 25.3885 30.0648 27.51 32.8308 27.51C35.5967 27.51 37.8511 25.3885 37.8511 22.5085C37.8511 19.6096 35.5967 17.5069 32.8308 17.5069Z" fill="white"/>
</g>
</svg>
